<svg width="8" height="10" viewBox="0 0 8 10" fill="none" xmlns="http://www.w3.org/2000/svg">
<path d="M1.98809 6.27886C2.00229 6.27886 2.03069 6.27886 2.03069 6.27886L5.68025 2.37696V0.800897C5.68025 0.54077 5.38203 0.403056 5.19743 0.556072L2.17269 3.15734C2.13009 3.18794 2.05909 3.21854 1.98809 3.21854H0.255611C0.0994042 3.21854 0 3.35626 0 3.52458V5.97283C0 6.14114 0.0852036 6.27886 0.255611 6.27886H1.98809Z" fill="#9BA0AD"/>
<path d="M7.90954 1.04591C7.79594 0.923498 7.62553 0.923498 7.51193 1.04591L0.156005 8.97212C0.0423995 9.09454 0.0423995 9.27816 0.156005 9.40057C0.212807 9.46177 0.28381 9.49238 0.354813 9.49238C0.425816 9.49238 0.496819 9.46177 0.553622 9.40057L2.85412 6.92171L5.21143 8.92622C5.39603 9.07924 5.69425 8.94152 5.69425 8.68139V3.92261L7.93794 1.48966C8.03735 1.36724 8.00895 1.16832 7.90954 1.04591Z" fill="#9BA0AD"/>
</svg>
