<svg width="40" height="44" viewBox="0 0 40 44" fill="none" xmlns="http://www.w3.org/2000/svg">
<g id="send-message-button">
<path id="Shape" d="M37.9452 1.95657L1.09759 21.0978C-0.418164 21.8848 -0.355979 23.0383 1.2344 23.662L5.93868 25.5039C7.52595 26.1261 9.93251 25.7888 11.2819 24.7431L31.7128 8.7836C33.056 7.73483 33.2005 7.89037 32.033 9.12857L15.8805 26.2585C14.7099 27.4921 15.0581 29.0044 16.65 29.6189L17.2004 29.833C18.7923 30.4428 21.3947 31.4685 22.9789 32.1092L28.1962 34.2129C29.7819 34.852 31.0785 35.3818 31.0785 35.391C31.0785 35.4002 31.0878 35.4295 31.0956 35.431C31.1033 35.4341 31.478 34.1004 31.9257 32.4649L39.8823 3.50124C40.33 1.86417 39.461 1.17115 37.9452 1.95657Z" fill="#0AD69C"/>
<path id="Shape_2" d="M16.253 32.7953L12.8974 31.1791C11.4262 30.4697 10.721 31.3016 11.3308 33.0318C11.3323 33.0318 14.4466 41.8681 14.3599 42.1794C14.2703 42.489 17.3484 36.9361 17.3484 36.9361C18.2184 35.3676 17.7241 33.5047 16.253 32.7953Z" fill="#0AD69C"/>
</g>
</svg>
